<svg id="Layer_1" data-name="Layer 1" xmlns="http://www.w3.org/2000/svg" viewBox="0 0 299.16 203.9"><defs><style>.cls-1{fill:#edeceb;}.cls-2,.cls-4{fill:#e36327;}.cls-3{fill:#f7ad14;}.cls-4{font-size:23.46px;font-family:MyriadPro-Bold, Myriad Pro;font-weight:700;letter-spacing:0.03em;}.cls-5{letter-spacing:0.03em;}.cls-6{letter-spacing:0.02em;}.cls-7{letter-spacing:0.02em;}.cls-8{letter-spacing:0.02em;}.cls-9{letter-spacing:0.01em;}.cls-10{letter-spacing:0.02em;}.cls-11{fill:#e06227;}.cls-12{fill:#e5e5e5;}</style></defs><rect class="cls-1" x="101.63" y="28.16" width="15.4" height="80.26" rx="7.7"/><rect class="cls-2" x="175.33" y="50.85" width="15.4" height="66.86" rx="7.7"/><rect class="cls-2" x="77.06" y="46.7" width="15.4" height="56.17" rx="7.7"/><rect class="cls-2" x="126.2" y="63.06" width="15.4" height="33.45" rx="7.7"/><rect class="cls-3" x="150.77" width="15.4" height="101.69" rx="7.7"/><rect class="cls-3" x="199.9" y="36.49" width="15.4" height="71.93" rx="7.7"/><text class="cls-4" transform="translate(106.1 140.85) scale(0.98 1)">G<tspan class="cls-5" x="16.66" y="0">i</tspan><tspan class="cls-6" x="23.67" y="0">r</tspan><tspan class="cls-5" x="33.11" y="0">ls 4 </tspan><tspan class="cls-7" x="75.17" y="0">L</tspan><tspan class="cls-5" x="87.54" y="0">eadership</tspan><tspan x="48.86" y="28.16">I</tspan><tspan class="cls-5" x="56.21" y="28.16">niti</tspan><tspan class="cls-8" x="93.77" y="28.16">a</tspan><tspan class="cls-5" x="106.56" y="28.16">ti</tspan><tspan class="cls-9" x="122.77" y="28.16">v</tspan><tspan class="cls-10" x="135.44" y="28.16">e</tspan></text><ellipse class="cls-11" cx="49.5" cy="156.16" rx="49.5" ry="47.74"/><path class="cls-12" d="M95.14,244.13v14a2.09,2.09,0,0,1-.61,1.71,2,2,0,0,1-2.16.32,1.72,1.72,0,0,1-1.08-1.74V244.67c0-.43,0-.43-.43-.43H86.12l5.49-19.35a5.68,5.68,0,0,0-.72,0c-.07,0-.14.16-.17.26-.39,1.3-.76,2.6-1.14,3.9-.65,2.22-1.29,4.44-1.94,6.66a1.74,1.74,0,0,1-1.8,1.44A1.71,1.71,0,0,1,84.27,235c.18-.81.44-1.6.67-2.4.9-3,1.82-6.08,2.71-9.13a6.56,6.56,0,0,1,1.46-2.8A5,5,0,0,1,92.75,219c2,0,3.89,0,5.84,0a5.06,5.06,0,0,1,3.75,1.82,6.81,6.81,0,0,1,1.43,2.79c.81,2.82,1.66,5.63,2.5,8.45.27.91.56,1.83.8,2.75a1.85,1.85,0,0,1-.94,2.19,1.68,1.68,0,0,1-2.34-1.18c-.49-1.61-1-3.23-1.43-4.85l-1.47-5c-.08-.29-.18-.57-.25-.86a.26.26,0,0,0-.31-.24h-.65l5.53,19.36h-.42c-1.45,0-2.9,0-4.35,0-.27,0-.37.06-.36.36q0,6.78,0,13.57a3,3,0,0,1-.21,1.16,1.84,1.84,0,0,1-2.09,1,1.73,1.73,0,0,1-1.51-1.61c-.06-1,0-1.9,0-2.84V244.54c0-.41,0-.41-.4-.41Z" transform="translate(-47.57 -82.49)"/><path class="cls-12" d="M95.67,218a4.08,4.08,0,0,1-4.06-4.12,4.07,4.07,0,1,1,8.14,0A4.09,4.09,0,0,1,95.67,218Z" transform="translate(-47.57 -82.49)"/><path class="cls-12" d="M113.49,247.35v11.83a1.89,1.89,0,0,1-.46,1.44,1.33,1.33,0,0,1-1.62.27,1.47,1.47,0,0,1-.81-1.46c0-3.88,0-7.75,0-11.63,0-.36,0-.36-.32-.36h-3.56l4.13-16.34a4.77,4.77,0,0,0-.54,0c-.06,0-.11.14-.13.22-.29,1.1-.57,2.2-.86,3.3q-.72,2.81-1.45,5.61c-.22.83-.68,1.24-1.35,1.22a1.43,1.43,0,0,1-1.18-1.81c.13-.68.33-1.35.5-2,.68-2.57,1.37-5.13,2-7.7a5.81,5.81,0,0,1,1.1-2.37,3.59,3.59,0,0,1,2.74-1.39c1.45,0,2.91,0,4.37,0a3.64,3.64,0,0,1,2.82,1.53,6.16,6.16,0,0,1,1.07,2.35c.61,2.38,1.25,4.76,1.88,7.13.2.77.42,1.54.6,2.32a1.65,1.65,0,0,1-.7,1.85c-.72.37-1.51-.06-1.76-1-.37-1.36-.72-2.72-1.07-4.08L117.8,232c-.06-.25-.14-.48-.18-.73s-.11-.21-.24-.2-.29,0-.49,0L121,247.44h-3.58c-.2,0-.27,0-.27.3,0,3.82,0,7.63,0,11.45a3.19,3.19,0,0,1-.16,1,1.35,1.35,0,0,1-1.57.85,1.4,1.4,0,0,1-1.14-1.36c0-.79,0-1.59,0-2.39v-9.57c0-.34,0-.34-.3-.34Z" transform="translate(-47.57 -82.49)"/><path class="cls-12" d="M113.88,225.29a3.5,3.5,0,1,1,3.07-3.48A3.26,3.26,0,0,1,113.88,225.29Z" transform="translate(-47.57 -82.49)"/><path class="cls-12" d="M127,250.44v9.24a1.48,1.48,0,0,1-.36,1.12,1.09,1.09,0,0,1-1.29.22,1.16,1.16,0,0,1-.64-1.15v-9.08c0-.28,0-.28-.25-.28h-2.82l3.27-12.75a2.12,2.12,0,0,0-.44,0s-.08.1-.1.17c-.22.85-.45,1.71-.67,2.57-.38,1.46-.77,2.92-1.15,4.38-.18.65-.54,1-1.07,1a1.11,1.11,0,0,1-.93-1.41c.1-.53.26-1.05.4-1.58.53-2,1.08-4,1.6-6a4.46,4.46,0,0,1,.87-1.85,2.86,2.86,0,0,1,2.16-1.09c1.16,0,2.31,0,3.46,0a2.9,2.9,0,0,1,2.23,1.2,4.78,4.78,0,0,1,.85,1.84c.48,1.86,1,3.71,1.48,5.56.16.61.33,1.21.48,1.81a1.29,1.29,0,0,1-.56,1.45,1,1,0,0,1-1.39-.78c-.29-1.06-.56-2.13-.85-3.19l-.87-3.31c-.05-.19-.11-.38-.15-.57a.17.17,0,0,0-.19-.16h-.38l3.28,12.76h-2.83c-.16,0-.21,0-.21.24q0,4.47,0,8.94a2.25,2.25,0,0,1-.12.77,1.08,1.08,0,0,1-1.24.66,1.11,1.11,0,0,1-.9-1.06c0-.62,0-1.25,0-1.87v-7.47c0-.27,0-.27-.24-.27Z" transform="translate(-47.57 -82.49)"/><path class="cls-12" d="M127.26,233.22a2.73,2.73,0,1,1,2.42-2.72A2.57,2.57,0,0,1,127.26,233.22Z" transform="translate(-47.57 -82.49)"/><path class="cls-12" d="M80.65,247v11.83a1.89,1.89,0,0,0,.46,1.44,1.33,1.33,0,0,0,1.62.27,1.47,1.47,0,0,0,.81-1.46V247.46c0-.36,0-.36.32-.36h3.56L83.3,230.76a4.77,4.77,0,0,1,.54,0s.11.14.13.22c.29,1.1.57,2.2.85,3.3.49,1.87,1,3.74,1.46,5.61.22.83.68,1.24,1.35,1.22a1.43,1.43,0,0,0,1.18-1.81c-.14-.68-.33-1.35-.51-2-.67-2.57-1.36-5.13-2-7.7a5.79,5.79,0,0,0-1.09-2.37,3.6,3.6,0,0,0-2.74-1.39c-1.46,0-2.92,0-4.37,0a3.62,3.62,0,0,0-2.82,1.53,5.87,5.87,0,0,0-1.07,2.35c-.61,2.38-1.25,4.76-1.88,7.13-.21.77-.42,1.54-.6,2.32a1.64,1.64,0,0,0,.7,1.85c.71.37,1.51-.06,1.76-1,.37-1.36.71-2.72,1.07-4.08l1.11-4.24c.06-.25.13-.48.18-.73s.1-.21.24-.2.29,0,.48,0L73.1,247.1h3.57c.2,0,.28,0,.28.3,0,3.82,0,7.63,0,11.45a2.92,2.92,0,0,0,.16,1,1.33,1.33,0,0,0,1.57.85,1.39,1.39,0,0,0,1.13-1.36c0-.79,0-1.59,0-2.39v-9.57c0-.34,0-.34.3-.34Z" transform="translate(-47.57 -82.49)"/><path class="cls-12" d="M80.25,225a3.5,3.5,0,1,0-3.06-3.48A3.26,3.26,0,0,0,80.25,225Z" transform="translate(-47.57 -82.49)"/><path class="cls-12" d="M67.19,250.1v9.24a1.44,1.44,0,0,0,.36,1.12,1.07,1.07,0,0,0,1.28.22,1.15,1.15,0,0,0,.64-1.15q0-4.53,0-9.08c0-.28,0-.28.25-.28h2.81l-3.26-12.75a2,2,0,0,1,.43,0s.09.1.1.17c.23.85.45,1.71.68,2.57.38,1.46.76,2.92,1.15,4.38.17.65.54,1,1.06.95a1.11,1.11,0,0,0,.94-1.41c-.11-.53-.26-1.05-.4-1.58-.53-2-1.08-4-1.61-6a4.44,4.44,0,0,0-.86-1.85,2.88,2.88,0,0,0-2.17-1.09c-1.15,0-2.3,0-3.46,0a2.93,2.93,0,0,0-2.23,1.2,4.76,4.76,0,0,0-.84,1.84c-.48,1.86-1,3.71-1.49,5.56-.16.61-.33,1.21-.47,1.81a1.3,1.3,0,0,0,.55,1.45c.57.29,1.19,0,1.39-.78.3-1.06.57-2.13.85-3.19s.59-2.21.88-3.31c0-.19.1-.38.14-.57s.08-.16.19-.16h.38l-3.27,12.76H64c.16,0,.22,0,.22.24,0,3,0,6,0,8.94a2.27,2.27,0,0,0,.13.77,1.07,1.07,0,0,0,1.24.66,1.12,1.12,0,0,0,.9-1.06c0-.62,0-1.25,0-1.87v-7.47c0-.27,0-.27.24-.27Z" transform="translate(-47.57 -82.49)"/><path class="cls-12" d="M66.87,232.88a2.73,2.73,0,1,0-2.42-2.72A2.56,2.56,0,0,0,66.87,232.88Z" transform="translate(-47.57 -82.49)"/></svg>